<svg xmlns="http://www.w3.org/2000/svg" xmlns:xlink="http://www.w3.org/1999/xlink" width="500" zoomAndPan="magnify" viewBox="0 0 375 374.999991" height="500" preserveAspectRatio="xMidYMid meet" version="1.0"><defs><g/><clipPath id="ff263fe7d8"><path d="M 177 98.171875 L 215 98.171875 L 215 221 L 177 221 Z M 177 98.171875 " clip-rule="nonzero"/></clipPath><clipPath id="d485beb441"><path d="M 214 98.171875 L 223.5 98.171875 L 223.5 229.421875 L 214 229.421875 Z M 214 98.171875 " clip-rule="nonzero"/></clipPath><clipPath id="f8bb338bc8"><path d="M 151.5 98.171875 L 161 98.171875 L 161 206 L 151.5 206 Z M 151.5 98.171875 " clip-rule="nonzero"/></clipPath><clipPath id="261b5df3bf"><path d="M 196 75 L 253 75 L 253 117 L 196 117 Z M 196 75 " clip-rule="nonzero"/></clipPath><clipPath id="6e32d16353"><path d="M 200.222656 66.136719 L 256.953125 89.886719 L 244.207031 120.328125 L 187.476562 96.574219 Z M 200.222656 66.136719 " clip-rule="nonzero"/></clipPath><clipPath id="ee084acf3b"><path d="M 200.222656 66.136719 L 256.953125 89.886719 L 244.207031 120.328125 L 187.476562 96.574219 Z M 200.222656 66.136719 " clip-rule="nonzero"/></clipPath><clipPath id="afd66ccb91"><path d="M 200.222656 66.136719 L 256.953125 89.886719 L 244.207031 120.328125 L 187.476562 96.574219 Z M 200.222656 66.136719 " clip-rule="nonzero"/></clipPath><clipPath id="c344c4b4b3"><path d="M 200.222656 66.136719 L 256.953125 89.886719 L 244.207031 120.328125 L 187.480469 96.574219 Z M 200.222656 66.136719 " clip-rule="nonzero"/></clipPath><clipPath id="4ec22e207f"><path d="M 200.222656 66.136719 L 256.953125 89.886719 L 244.207031 120.328125 L 187.480469 96.574219 Z M 200.222656 66.136719 " clip-rule="nonzero"/></clipPath></defs><g clip-path="url(#ff263fe7d8)"><path fill="#081f6b" d="M 205.375 107.273438 L 205.375 186.136719 L 177.179688 158.753906 L 177.179688 184.023438 L 214.441406 220.203125 L 214.441406 98.207031 C 209.433594 98.207031 205.375 102.265625 205.375 107.273438 " fill-opacity="1" fill-rule="nonzero"/></g><g clip-path="url(#d485beb441)"><path fill="#081f6b" d="M 223.503906 107.273438 C 223.503906 102.265625 219.445312 98.207031 214.441406 98.207031 L 214.441406 220.203125 L 223.503906 229.003906 L 223.503906 107.273438 " fill-opacity="1" fill-rule="nonzero"/></g><g clip-path="url(#f8bb338bc8)"><path fill="#169d53" d="M 151.511719 98.207031 L 151.511719 196.027344 C 151.511719 201.03125 155.570312 205.089844 160.578125 205.089844 L 160.578125 107.644531 L 151.511719 98.207031 " fill-opacity="1" fill-rule="nonzero"/></g><path fill="#169d53" d="M 160.578125 107.644531 L 160.578125 205.089844 C 165.582031 205.089844 169.640625 201.03125 169.640625 196.027344 L 169.640625 143.246094 L 196.570312 171.28125 L 196.570312 145.113281 L 160.578125 107.644531 " fill-opacity="1" fill-rule="nonzero"/><g clip-path="url(#261b5df3bf)"><g clip-path="url(#6e32d16353)"><g clip-path="url(#ee084acf3b)"><g clip-path="url(#afd66ccb91)"><g clip-path="url(#c344c4b4b3)"><g clip-path="url(#4ec22e207f)"><path fill="#000000" d="M 206.640625 87.769531 L 219.625 99.414062 L 237.035156 100.496094 L 233.207031 109.640625 C 232.011719 112.5 224.234375 111.964844 215.84375 108.453125 C 207.449219 104.9375 201.613281 99.773438 202.808594 96.914062 Z M 228.585938 78.011719 L 252.824219 99.746094 L 248.019531 99.445312 L 244.628906 107.542969 L 244.730469 107.628906 C 245.25 108.160156 245.433594 108.964844 245.128906 109.6875 C 244.925781 110.171875 244.546875 110.523438 244.097656 110.707031 L 244.058594 110.71875 L 242.644531 116.851562 L 238.257812 115.015625 L 241.636719 109.703125 L 241.617188 109.667969 C 241.433594 109.21875 241.417969 108.703125 241.621094 108.21875 C 241.925781 107.496094 242.625 107.0625 243.367188 107.058594 L 243.5 107.070312 L 246.726562 99.367188 L 220.332031 97.726562 L 196.097656 75.992188 Z M 228.585938 78.011719 " fill-opacity="1" fill-rule="evenodd"/></g></g></g></g></g></g><g fill="#081f6b" fill-opacity="1"><g transform="translate(140.770395, 257.064125)"><g><path d="M 18.421875 -17.78125 L 18.421875 0 L 15.046875 0 L 6.171875 -10.796875 L 6.171875 0 L 2.109375 0 L 2.109375 -17.78125 L 5.515625 -17.78125 L 14.359375 -6.984375 L 14.359375 -17.78125 Z M 18.421875 -17.78125 "/></g></g></g><g fill="#169d53" fill-opacity="1"><g transform="translate(161.934456, 257.064125)"><g><path d="M 10.71875 0.3125 C 8.875 0.3125 7.207031 -0.0820312 5.71875 -0.875 C 4.238281 -1.675781 3.078125 -2.773438 2.234375 -4.171875 C 1.398438 -5.578125 0.984375 -7.148438 0.984375 -8.890625 C 0.984375 -10.640625 1.398438 -12.210938 2.234375 -13.609375 C 3.078125 -15.003906 4.238281 -16.097656 5.71875 -16.890625 C 7.207031 -17.691406 8.875 -18.09375 10.71875 -18.09375 C 12.5625 -18.09375 14.21875 -17.691406 15.6875 -16.890625 C 17.164062 -16.097656 18.328125 -15.003906 19.171875 -13.609375 C 20.023438 -12.210938 20.453125 -10.640625 20.453125 -8.890625 C 20.453125 -7.148438 20.023438 -5.578125 19.171875 -4.171875 C 18.328125 -2.773438 17.164062 -1.675781 15.6875 -0.875 C 14.21875 -0.0820312 12.5625 0.3125 10.71875 0.3125 Z M 10.71875 -3.203125 C 11.769531 -3.203125 12.71875 -3.441406 13.5625 -3.921875 C 14.414062 -4.410156 15.082031 -5.082031 15.5625 -5.9375 C 16.039062 -6.800781 16.28125 -7.785156 16.28125 -8.890625 C 16.28125 -9.992188 16.039062 -10.976562 15.5625 -11.84375 C 15.082031 -12.707031 14.414062 -13.378906 13.5625 -13.859375 C 12.71875 -14.335938 11.769531 -14.578125 10.71875 -14.578125 C 9.664062 -14.578125 8.71875 -14.335938 7.875 -13.859375 C 7.03125 -13.378906 6.363281 -12.707031 5.875 -11.84375 C 5.394531 -10.976562 5.15625 -9.992188 5.15625 -8.890625 C 5.15625 -7.785156 5.394531 -6.800781 5.875 -5.9375 C 6.363281 -5.082031 7.03125 -4.410156 7.875 -3.921875 C 8.71875 -3.441406 9.664062 -3.203125 10.71875 -3.203125 Z M 10.71875 -3.203125 "/></g></g></g><g fill="#169d53" fill-opacity="1"><g transform="translate(184.002598, 257.064125)"><g><path d="M 5.796875 -14.4375 L 0.109375 -14.4375 L 0.109375 -17.78125 L 15.59375 -17.78125 L 15.59375 -14.4375 L 9.90625 -14.4375 L 9.90625 0 L 5.796875 0 Z M 5.796875 -14.4375 "/></g></g></g><g fill="#169d53" fill-opacity="1"><g transform="translate(200.331562, 257.064125)"><g><path d="M 15.875 -3.296875 L 15.875 0 L 2.109375 0 L 2.109375 -17.78125 L 15.546875 -17.78125 L 15.546875 -14.484375 L 6.203125 -14.484375 L 6.203125 -10.625 L 14.453125 -10.625 L 14.453125 -7.421875 L 6.203125 -7.421875 L 6.203125 -3.296875 Z M 15.875 -3.296875 "/></g></g></g><g fill="#169d53" fill-opacity="1"><g transform="translate(218.006428, 257.064125)"><g><path d="M 7.953125 0.3125 C 6.546875 0.3125 5.1875 0.117188 3.875 -0.265625 C 2.5625 -0.648438 1.507812 -1.144531 0.71875 -1.75 L 2.109375 -4.859375 C 2.867188 -4.296875 3.773438 -3.84375 4.828125 -3.5 C 5.878906 -3.164062 6.929688 -3 7.984375 -3 C 9.148438 -3 10.007812 -3.171875 10.5625 -3.515625 C 11.125 -3.867188 11.40625 -4.332031 11.40625 -4.90625 C 11.40625 -5.320312 11.238281 -5.671875 10.90625 -5.953125 C 10.582031 -6.234375 10.160156 -6.457031 9.640625 -6.625 C 9.117188 -6.800781 8.421875 -6.988281 7.546875 -7.1875 C 6.191406 -7.507812 5.082031 -7.832031 4.21875 -8.15625 C 3.351562 -8.476562 2.609375 -8.992188 1.984375 -9.703125 C 1.367188 -10.410156 1.0625 -11.359375 1.0625 -12.546875 C 1.0625 -13.578125 1.34375 -14.507812 1.90625 -15.34375 C 2.46875 -16.1875 3.3125 -16.851562 4.4375 -17.34375 C 5.5625 -17.84375 6.9375 -18.09375 8.5625 -18.09375 C 9.695312 -18.09375 10.804688 -17.957031 11.890625 -17.6875 C 12.972656 -17.414062 13.921875 -17.023438 14.734375 -16.515625 L 13.46875 -13.390625 C 11.820312 -14.316406 10.175781 -14.78125 8.53125 -14.78125 C 7.382812 -14.78125 6.535156 -14.59375 5.984375 -14.21875 C 5.429688 -13.851562 5.15625 -13.363281 5.15625 -12.75 C 5.15625 -12.144531 5.472656 -11.691406 6.109375 -11.390625 C 6.742188 -11.097656 7.710938 -10.804688 9.015625 -10.515625 C 10.367188 -10.191406 11.476562 -9.867188 12.34375 -9.546875 C 13.207031 -9.222656 13.945312 -8.710938 14.5625 -8.015625 C 15.1875 -7.328125 15.5 -6.390625 15.5 -5.203125 C 15.5 -4.191406 15.210938 -3.265625 14.640625 -2.421875 C 14.078125 -1.585938 13.226562 -0.921875 12.09375 -0.421875 C 10.957031 0.0664062 9.578125 0.3125 7.953125 0.3125 Z M 7.953125 0.3125 "/></g></g></g></svg>